<svg width="50" height="50" viewBox="0 0 50 50" fill="none" xmlns="http://www.w3.org/2000/svg">
<g clip-path="url(#clip0_2031_926)">
<path d="M35.4167 22.9167V6.25H14.5833V14.5833H6.25V43.75H22.9167V35.4167H27.0833V43.75H43.75V22.9167H35.4167ZM14.5833 39.5833H10.4167V35.4167H14.5833V39.5833ZM14.5833 31.25H10.4167V27.0833H14.5833V31.25ZM14.5833 22.9167H10.4167V18.75H14.5833V22.9167ZM22.9167 31.25H18.75V27.0833H22.9167V31.25ZM22.9167 22.9167H18.75V18.75H22.9167V22.9167ZM22.9167 14.5833H18.75V10.4167H22.9167V14.5833ZM31.25 31.25H27.0833V27.0833H31.25V31.25ZM31.25 22.9167H27.0833V18.75H31.25V22.9167ZM31.25 14.5833H27.0833V10.4167H31.25V14.5833ZM39.5833 39.5833H35.4167V35.4167H39.5833V39.5833ZM39.5833 31.25H35.4167V27.0833H39.5833V31.25Z" fill="#0F52BA"/>
</g>
<defs>
<clipPath id="clip0_2031_926">
<rect width="50" height="50" fill="white"/>
</clipPath>
</defs>
</svg>
