<svg width="28" height="28" viewBox="0 0 28 28" fill="none" xmlns="http://www.w3.org/2000/svg">
<path d="M5.25 25.375C3.80025 25.375 2.625 24.1997 2.625 22.75V5.25C2.625 3.80025 3.80025 2.625 5.25 2.625H19.25C19.7332 2.625 20.125 3.01675 20.125 3.5C20.125 3.98325 19.7332 4.375 19.25 4.375H5.25C4.76675 4.375 4.375 4.76675 4.375 5.25V22.75C4.375 23.2332 4.76675 23.625 5.25 23.625H22.75C23.2332 23.625 23.625 23.2332 23.625 22.75V14C23.625 13.5168 24.0168 13.125 24.5 13.125C24.9832 13.125 25.375 13.5168 25.375 14V22.75C25.375 24.1997 24.1997 25.375 22.75 25.375H5.25Z" fill="white"/>
<path d="M14.6187 18.1187L26.8687 5.86872C27.2104 5.52701 27.2104 4.97299 26.8687 4.63128C26.527 4.28957 25.973 4.28957 25.6313 4.63128L14 16.2626L9.36872 11.6313C9.02701 11.2896 8.47299 11.2896 8.13128 11.6313C7.78957 11.973 7.78957 12.527 8.13128 12.8687L13.3813 18.1187C13.723 18.4604 14.277 18.4604 14.6187 18.1187Z" fill="white"/>
</svg>
