<svg width="19" height="19" viewBox="0 0 19 19" fill="none" xmlns="http://www.w3.org/2000/svg">
<g clip-path="url(#clip0_2024_1429)">
<path d="M7.125 8.70833H5.54167V10.2917H7.125V8.70833ZM10.2917 8.70833H8.70833V10.2917H10.2917V8.70833ZM13.4583 8.70833H11.875V10.2917H13.4583V8.70833ZM15.0417 3.16666H14.25V1.58333H12.6667V3.16666H6.33333V1.58333H4.75V3.16666H3.95833C3.07958 3.16666 2.38292 3.87916 2.38292 4.75L2.375 15.8333C2.375 16.7042 3.07958 17.4167 3.95833 17.4167H15.0417C15.9125 17.4167 16.625 16.7042 16.625 15.8333V4.75C16.625 3.87916 15.9125 3.16666 15.0417 3.16666ZM15.0417 15.8333H3.95833V7.125H15.0417V15.8333Z" fill="#0F52BA"/>
</g>
<defs>
<clipPath id="clip0_2024_1429">
<rect width="19" height="19" fill="white"/>
</clipPath>
</defs>
</svg>
