<svg width="18" height="19" viewBox="0 0 18 19" fill="none" xmlns="http://www.w3.org/2000/svg">
<g clip-path="url(#clip0_2018_680)">
<path d="M6.75 8.75H5.25V10.25H6.75V8.75ZM9.75 8.75H8.25V10.25H9.75V8.75ZM12.75 8.75H11.25V10.25H12.75V8.75ZM14.25 3.5H13.5V2H12V3.5H6V2H4.5V3.5H3.75C2.9175 3.5 2.2575 4.175 2.2575 5L2.25 15.5C2.25 16.325 2.9175 17 3.75 17H14.25C15.075 17 15.75 16.325 15.75 15.5V5C15.75 4.175 15.075 3.5 14.25 3.5ZM14.25 15.5H3.75V7.25H14.25V15.5Z" fill="#E09B13"/>
</g>
<defs>
<clipPath id="clip0_2018_680">
<rect width="18" height="18" fill="white" transform="translate(0 0.5)"/>
</clipPath>
</defs>
</svg>
