<svg width="25" height="25" viewBox="0 0 25 25" fill="none" xmlns="http://www.w3.org/2000/svg">
<path d="M12.5 2.34375C10.4913 2.34375 8.52768 2.9394 6.85749 4.05539C5.18731 5.17137 3.88556 6.75756 3.11685 8.61337C2.34815 10.4692 2.14702 12.5113 2.5389 14.4814C2.93079 16.4515 3.89807 18.2612 5.31845 19.6816C6.73883 21.1019 8.5485 22.0692 10.5186 22.4611C12.4887 22.853 14.5308 22.6519 16.3866 21.8832C18.2424 21.1144 19.8286 19.8127 20.9446 18.1425C22.0606 16.4723 22.6563 14.5087 22.6563 12.5C22.6534 9.80727 21.5825 7.22564 19.6784 5.32159C17.7744 3.41754 15.1927 2.34659 12.5 2.34375ZM13.2813 21.0576V14.8438H15.625C15.8322 14.8438 16.0309 14.7614 16.1774 14.6149C16.3239 14.4684 16.4063 14.2697 16.4063 14.0625C16.4063 13.8553 16.3239 13.6566 16.1774 13.5101C16.0309 13.3636 15.8322 13.2812 15.625 13.2812H13.2813V10.9375C13.2813 10.5231 13.4459 10.1257 13.7389 9.83265C14.0319 9.53962 14.4294 9.375 14.8438 9.375H16.4063C16.6135 9.375 16.8122 9.29269 16.9587 9.14618C17.1052 8.99966 17.1875 8.80095 17.1875 8.59375C17.1875 8.38655 17.1052 8.18784 16.9587 8.04132C16.8122 7.89481 16.6135 7.8125 16.4063 7.8125H14.8438C14.015 7.8125 13.2201 8.14174 12.634 8.72779C12.048 9.31384 11.7188 10.1087 11.7188 10.9375V13.2812H9.375C9.1678 13.2812 8.96909 13.3636 8.82258 13.5101C8.67606 13.6566 8.59375 13.8553 8.59375 14.0625C8.59375 14.2697 8.67606 14.4684 8.82258 14.6149C8.96909 14.7614 9.1678 14.8438 9.375 14.8438H11.7188V21.0576C9.51641 20.8566 7.47634 19.8142 6.02289 18.1474C4.56945 16.4806 3.81453 14.3176 3.91516 12.1084C4.01578 9.89921 4.96421 7.81382 6.56317 6.28604C8.16212 4.75826 10.2885 3.9057 12.5 3.9057C14.7115 3.9057 16.8379 4.75826 18.4368 6.28604C20.0358 7.81382 20.9842 9.89921 21.0849 12.1084C21.1855 14.3176 20.4306 16.4806 18.9771 18.1474C17.5237 19.8142 15.4836 20.8566 13.2813 21.0576Z" fill="white"/>
</svg>
