<svg width="220" height="220" viewBox="0 0 220 220" fill="none" xmlns="http://www.w3.org/2000/svg">
<g opacity="0.8">
<path d="M189.062 137.5C189.062 139.54 188.458 141.533 187.325 143.229C186.191 144.925 184.581 146.247 182.696 147.028C180.812 147.808 178.739 148.012 176.738 147.614C174.738 147.216 172.9 146.234 171.458 144.792C170.016 143.35 169.034 141.512 168.636 139.512C168.238 137.511 168.442 135.438 169.222 133.554C170.003 131.669 171.325 130.059 173.021 128.925C174.717 127.792 176.71 127.188 178.75 127.188C181.485 127.188 184.108 128.274 186.042 130.208C187.976 132.142 189.062 134.765 189.062 137.5ZM185.152 171.265C183.642 181 178.703 189.875 171.226 196.29C163.75 202.705 154.227 206.237 144.375 206.25H123.75C112.813 206.239 102.328 201.889 94.5944 194.156C86.861 186.422 82.5114 175.937 82.5 165V130.187C69.21 128.512 56.9879 122.045 48.1273 112C39.2667 101.954 34.3767 89.02 34.375 75.625V34.375C34.375 32.5516 35.0993 30.803 36.3886 29.5136C37.678 28.2243 39.4266 27.5 41.25 27.5H61.875C63.6984 27.5 65.447 28.2243 66.7364 29.5136C68.0257 30.803 68.75 32.5516 68.75 34.375C68.75 36.1984 68.0257 37.947 66.7364 39.2364C65.447 40.5257 63.6984 41.25 61.875 41.25H48.125V75.625C48.1245 81.0886 49.2094 86.4979 51.3167 91.5388C53.4241 96.5796 56.5118 101.152 60.4006 104.989C64.2895 108.827 68.902 111.854 73.9704 113.894C79.0387 115.935 84.4619 116.948 89.925 116.875C112.363 116.583 130.625 97.7539 130.625 74.9117V41.25H116.875C115.052 41.25 113.303 40.5257 112.014 39.2364C110.724 37.947 110 36.1984 110 34.375C110 32.5516 110.724 30.803 112.014 29.5136C113.303 28.2243 115.052 27.5 116.875 27.5H137.5C139.323 27.5 141.072 28.2243 142.361 29.5136C143.651 30.803 144.375 32.5516 144.375 34.375V74.9117C144.375 103.134 123.295 126.723 96.25 130.178V165C96.25 172.293 99.1473 179.288 104.305 184.445C109.462 189.603 116.457 192.5 123.75 192.5H144.375C150.62 192.49 156.676 190.358 161.551 186.455C166.426 182.551 169.829 177.107 171.205 171.016C162.902 169.151 155.586 164.272 150.672 157.324C145.759 150.376 143.597 141.852 144.606 133.402C145.614 124.952 149.721 117.177 156.132 111.581C162.543 105.984 170.801 102.965 179.31 103.106C187.819 103.248 195.973 106.54 202.194 112.347C208.415 118.153 212.261 126.061 212.988 134.54C213.715 143.019 211.271 151.466 206.129 158.247C200.987 165.027 193.513 169.66 185.152 171.248V171.265ZM199.375 137.5C199.375 133.421 198.165 129.433 195.899 126.041C193.633 122.65 190.412 120.006 186.643 118.445C182.874 116.884 178.727 116.475 174.726 117.271C170.725 118.067 167.05 120.031 164.166 122.916C161.281 125.8 159.317 129.475 158.521 133.476C157.725 137.477 158.134 141.624 159.695 145.393C161.256 149.162 163.9 152.383 167.291 154.649C170.683 156.915 174.671 158.125 178.75 158.125C184.22 158.125 189.466 155.952 193.334 152.084C197.202 148.216 199.375 142.97 199.375 137.5Z" fill="white"/>
</g>
</svg>
