<svg width="55" height="55" viewBox="0 0 55 55" fill="none" xmlns="http://www.w3.org/2000/svg">
<path d="M46.4062 12.0312H37.8125V10.3125C37.8125 8.94498 37.2693 7.63347 36.3023 6.66648C35.3353 5.6995 34.0238 5.15625 32.6562 5.15625H22.3438C20.9762 5.15625 19.6647 5.6995 18.6977 6.66648C17.7307 7.63347 17.1875 8.94498 17.1875 10.3125V12.0312H8.59375C7.68207 12.0312 6.80773 12.3934 6.16307 13.0381C5.51841 13.6827 5.15625 14.5571 5.15625 15.4688V42.9688C5.15625 43.8804 5.51841 44.7548 6.16307 45.3994C6.80773 46.0441 7.68207 46.4062 8.59375 46.4062H46.4062C47.3179 46.4062 48.1923 46.0441 48.8369 45.3994C49.4816 44.7548 49.8438 43.8804 49.8438 42.9688V15.4688C49.8438 14.5571 49.4816 13.6827 48.8369 13.0381C48.1923 12.3934 47.3179 12.0312 46.4062 12.0312ZM20.625 10.3125C20.625 9.85666 20.8061 9.41949 21.1284 9.09716C21.4507 8.77483 21.8879 8.59375 22.3438 8.59375H32.6562C33.1121 8.59375 33.5493 8.77483 33.8716 9.09716C34.1939 9.41949 34.375 9.85666 34.375 10.3125V12.0312H20.625V10.3125ZM46.4062 42.9688H8.59375V15.4688H46.4062V42.9688ZM34.375 29.2188C34.375 29.6746 34.1939 30.1118 33.8716 30.4341C33.5493 30.7564 33.1121 30.9375 32.6562 30.9375H29.2188V34.375C29.2188 34.8308 29.0377 35.268 28.7153 35.5903C28.393 35.9127 27.9558 36.0938 27.5 36.0938C27.0442 36.0938 26.607 35.9127 26.2847 35.5903C25.9623 35.268 25.7812 34.8308 25.7812 34.375V30.9375H22.3438C21.8879 30.9375 21.4507 30.7564 21.1284 30.4341C20.8061 30.1118 20.625 29.6746 20.625 29.2188C20.625 28.7629 20.8061 28.3257 21.1284 28.0034C21.4507 27.6811 21.8879 27.5 22.3438 27.5H25.7812V24.0625C25.7812 23.6067 25.9623 23.1695 26.2847 22.8472C26.607 22.5248 27.0442 22.3438 27.5 22.3438C27.9558 22.3438 28.393 22.5248 28.7153 22.8472C29.0377 23.1695 29.2188 23.6067 29.2188 24.0625V27.5H32.6562C33.1121 27.5 33.5493 27.6811 33.8716 28.0034C34.1939 28.3257 34.375 28.7629 34.375 29.2188Z" fill="#0F52BA"/>
</svg>
