<svg width="55" height="55" viewBox="0 0 55 55" fill="none" xmlns="http://www.w3.org/2000/svg">
<path d="M53.2812 44.6875H51.5625V27.5C51.5625 26.5883 51.2003 25.714 50.5557 25.0693C49.911 24.4247 49.0367 24.0625 48.125 24.0625H36.0938V10.3125C36.0938 9.40082 35.7316 8.52648 35.0869 7.88182C34.4423 7.23716 33.5679 6.875 32.6562 6.875H12.0312C11.1196 6.875 10.2452 7.23716 9.60057 7.88182C8.95591 8.52648 8.59375 9.40082 8.59375 10.3125V44.6875H6.875C6.41916 44.6875 5.98199 44.8686 5.65966 45.1909C5.33733 45.5132 5.15625 45.9504 5.15625 46.4062C5.15625 46.8621 5.33733 47.2993 5.65966 47.6216C5.98199 47.9439 6.41916 48.125 6.875 48.125H53.2812C53.7371 48.125 54.1743 47.9439 54.4966 47.6216C54.8189 47.2993 55 46.8621 55 46.4062C55 45.9504 54.8189 45.5132 54.4966 45.1909C54.1743 44.8686 53.7371 44.6875 53.2812 44.6875ZM48.125 27.5V44.6875H36.0938V27.5H48.125ZM12.0312 10.3125H32.6562V44.6875H29.2188V34.375C29.2188 33.9192 29.0377 33.482 28.7153 33.1597C28.393 32.8373 27.9558 32.6562 27.5 32.6562H17.1875C16.7317 32.6562 16.2945 32.8373 15.9722 33.1597C15.6498 33.482 15.4688 33.9192 15.4688 34.375V44.6875H12.0312V10.3125ZM25.7812 44.6875H18.9062V36.0938H25.7812V44.6875ZM15.4688 20.625C15.4688 20.1692 15.6498 19.732 15.9722 19.4097C16.2945 19.0873 16.7317 18.9062 17.1875 18.9062H20.625V15.4688C20.625 15.0129 20.8061 14.5757 21.1284 14.2534C21.4507 13.9311 21.8879 13.75 22.3438 13.75C22.7996 13.75 23.2368 13.9311 23.5591 14.2534C23.8814 14.5757 24.0625 15.0129 24.0625 15.4688V18.9062H27.5C27.9558 18.9062 28.393 19.0873 28.7153 19.4097C29.0377 19.732 29.2188 20.1692 29.2188 20.625C29.2188 21.0808 29.0377 21.518 28.7153 21.8403C28.393 22.1627 27.9558 22.3438 27.5 22.3438H24.0625V25.7812C24.0625 26.2371 23.8814 26.6743 23.5591 26.9966C23.2368 27.3189 22.7996 27.5 22.3438 27.5C21.8879 27.5 21.4507 27.3189 21.1284 26.9966C20.8061 26.6743 20.625 26.2371 20.625 25.7812V22.3438H17.1875C16.7317 22.3438 16.2945 22.1627 15.9722 21.8403C15.6498 21.518 15.4688 21.0808 15.4688 20.625Z" fill="#0F52BA"/>
</svg>
