<svg width="55" height="55" viewBox="0 0 55 55" fill="none" xmlns="http://www.w3.org/2000/svg">
<path d="M44.6875 8.59375H10.3125C9.40082 8.59375 8.52648 8.95591 7.88182 9.60057C7.23716 10.2452 6.875 11.1196 6.875 12.0312V24.0625C6.875 35.3891 12.3578 42.2533 16.9576 46.0174C21.9119 50.0693 26.8404 51.4443 27.0553 51.5023C27.3507 51.5827 27.6622 51.5827 27.9576 51.5023C28.1725 51.4443 33.0945 50.0693 38.0553 46.0174C42.6422 42.2533 48.125 35.3891 48.125 24.0625V12.0312C48.125 11.1196 47.7628 10.2452 47.1182 9.60057C46.4735 8.95591 45.5992 8.59375 44.6875 8.59375ZM44.6875 24.0625C44.6875 32.0268 41.7527 38.4914 35.9648 43.2738C33.4453 45.3486 30.5799 46.9631 27.5 48.0434C24.4604 46.982 21.6304 45.3961 19.1383 43.3576C13.2816 38.5666 10.3125 32.0762 10.3125 24.0625V12.0312H44.6875V24.0625ZM17.6902 30.4348C17.3677 30.1123 17.1865 29.6748 17.1865 29.2188C17.1865 28.7627 17.3677 28.3252 17.6902 28.0027C18.0127 27.6802 18.4502 27.499 18.9062 27.499C19.3623 27.499 19.7998 27.6802 20.1223 28.0027L24.0625 31.9451L34.8777 21.1277C35.0374 20.968 35.227 20.8414 35.4356 20.7549C35.6443 20.6685 35.8679 20.624 36.0938 20.624C36.3196 20.624 36.5432 20.6685 36.7519 20.7549C36.9605 20.8414 37.1501 20.968 37.3098 21.1277C37.4695 21.2874 37.5961 21.477 37.6826 21.6856C37.769 21.8943 37.8135 22.1179 37.8135 22.3438C37.8135 22.5696 37.769 22.7932 37.6826 23.0019C37.5961 23.2105 37.4695 23.4001 37.3098 23.5598L25.2785 35.591C25.1189 35.7508 24.9293 35.8776 24.7207 35.9641C24.512 36.0506 24.2884 36.0951 24.0625 36.0951C23.8366 36.0951 23.613 36.0506 23.4043 35.9641C23.1957 35.8776 23.0061 35.7508 22.8465 35.591L17.6902 30.4348Z" fill="#0F52BA"/>
</svg>
