<svg width="55" height="55" viewBox="0 0 55 55" fill="none" xmlns="http://www.w3.org/2000/svg">
<path d="M47.2656 34.375C47.2656 34.8849 47.1144 35.3834 46.8311 35.8073C46.5478 36.2313 46.1452 36.5617 45.6741 36.7569C45.203 36.952 44.6846 37.0031 44.1845 36.9036C43.6844 36.8041 43.225 36.5586 42.8645 36.198C42.5039 35.8375 42.2584 35.3781 42.1589 34.878C42.0594 34.3779 42.1105 33.8595 42.3056 33.3884C42.5008 32.9173 42.8312 32.5147 43.2552 32.2314C43.6791 31.9481 44.1776 31.7969 44.6875 31.7969C45.3713 31.7969 46.027 32.0685 46.5105 32.552C46.994 33.0355 47.2656 33.6912 47.2656 34.375ZM46.2881 42.8162C45.9106 45.25 44.6758 47.4688 42.8066 49.0726C40.9374 50.6763 38.5567 51.5593 36.0938 51.5625H30.9375C28.2033 51.5597 25.582 50.4723 23.6486 48.5389C21.7152 46.6055 20.6278 43.9842 20.625 41.25V32.5467C17.3025 32.1281 14.247 30.5114 12.0318 27.9999C9.81667 25.4885 8.59417 22.255 8.59375 18.9062V8.59375C8.59375 8.13791 8.77483 7.70074 9.09716 7.37841C9.41949 7.05608 9.85666 6.875 10.3125 6.875H15.4688C15.9246 6.875 16.3618 7.05608 16.6841 7.37841C17.0064 7.70074 17.1875 8.13791 17.1875 8.59375C17.1875 9.04959 17.0064 9.48676 16.6841 9.80909C16.3618 10.1314 15.9246 10.3125 15.4688 10.3125H12.0312V18.9062C12.0311 20.2722 12.3024 21.6245 12.8292 22.8847C13.356 24.1449 14.1279 25.2879 15.1002 26.2473C16.0724 27.2068 17.2255 27.9635 18.4926 28.4736C19.7597 28.9837 21.1155 29.237 22.4812 29.2188C28.0908 29.1457 32.6562 24.4385 32.6562 18.7279V10.3125H29.2188C28.7629 10.3125 28.3257 10.1314 28.0034 9.80909C27.6811 9.48676 27.5 9.04959 27.5 8.59375C27.5 8.13791 27.6811 7.70074 28.0034 7.37841C28.3257 7.05608 28.7629 6.875 29.2188 6.875H34.375C34.8308 6.875 35.268 7.05608 35.5903 7.37841C35.9127 7.70074 36.0938 8.13791 36.0938 8.59375V18.7279C36.0938 25.7834 30.8236 31.6809 24.0625 32.5445V41.25C24.0625 43.0734 24.7868 44.822 26.0761 46.1114C27.3655 47.4007 29.1141 48.125 30.9375 48.125H36.0938C37.655 48.1224 39.169 47.5895 40.3877 46.6136C41.6064 45.6378 42.4574 44.2768 42.8012 42.7539C40.7254 42.2876 38.8964 41.068 37.668 39.331C36.4397 37.594 35.8993 35.4631 36.1514 33.3506C36.4036 31.2381 37.4303 29.2943 39.033 27.8951C40.6357 26.496 42.7004 25.7411 44.8275 25.7765C46.9547 25.8119 48.9932 26.6351 50.5484 28.0867C52.1037 29.5384 53.0652 31.5153 53.2469 33.635C53.4287 35.7547 52.8177 37.8664 51.5322 39.5616C50.2468 41.2568 48.3782 42.415 46.2881 42.8119V42.8162ZM49.8438 34.375C49.8438 33.3552 49.5413 32.3583 48.9748 31.5103C48.4082 30.6624 47.6029 30.0015 46.6607 29.6112C45.7185 29.221 44.6818 29.1189 43.6816 29.3178C42.6814 29.5168 41.7626 30.0079 41.0415 30.729C40.3204 31.4501 39.8293 32.3688 39.6303 33.3691C39.4314 34.3693 39.5335 35.406 39.9237 36.3482C40.314 37.2904 40.9749 38.0957 41.8228 38.6623C42.6708 39.2288 43.6677 39.5312 44.6875 39.5312C46.055 39.5312 47.3665 38.988 48.3335 38.021C49.3005 37.054 49.8438 35.7425 49.8438 34.375Z" fill="#0F52BA"/>
</svg>
