<svg width="55" height="55" viewBox="0 0 55 55" fill="none" xmlns="http://www.w3.org/2000/svg">
<path d="M53.2829 26.6406C53.2806 24.364 52.6337 22.1345 51.417 20.2103C50.2003 18.286 48.4636 16.7456 46.4079 15.7674V15.4687C46.4059 13.2542 45.6911 11.0991 44.3691 9.3223C43.0472 7.54554 41.1885 6.24151 39.0679 5.60317C36.9473 4.96483 34.6776 5.02608 32.5945 5.77787C30.5115 6.52966 28.7258 7.93205 27.5016 9.77752C26.2775 7.93205 24.4917 6.52966 22.4087 5.77787C20.3256 5.02608 18.0559 4.96483 15.9353 5.60317C13.8147 6.24151 11.956 7.54554 10.6341 9.3223C9.31217 11.0991 8.59734 13.2542 8.59536 15.4687V15.7674C6.53788 16.7429 4.79949 18.2824 3.58221 20.2067C2.36494 22.1311 1.71875 24.3614 1.71875 26.6385C1.71875 28.9155 2.36494 31.1458 3.58221 33.0702C4.79949 34.9946 6.53788 36.534 8.59536 37.5096V37.8125C8.59734 40.0271 9.31217 42.1822 10.6341 43.9589C11.956 45.7357 13.8147 47.0397 15.9353 47.6781C18.0559 48.3164 20.3256 48.2551 22.4087 47.5033C24.4917 46.7516 26.2775 45.3492 27.5016 43.5037C28.7258 45.3492 30.5115 46.7516 32.5945 47.5033C34.6776 48.2551 36.9473 48.3164 39.0679 47.6781C41.1885 47.0397 43.0472 45.7357 44.3691 43.9589C45.6911 42.1822 46.4059 40.0271 46.4079 37.8125V37.5096C48.4633 36.532 50.1998 34.9924 51.4165 33.0689C52.6332 31.1454 53.2803 28.9166 53.2829 26.6406ZM18.9079 44.6875C17.2126 44.6872 15.5773 44.0607 14.3158 42.9281C13.0544 41.7956 12.2559 40.237 12.0737 38.5515C12.6295 38.6308 13.1902 38.671 13.7516 38.6719H15.4704C15.9262 38.6719 16.3634 38.4908 16.6857 38.1684C17.008 37.8461 17.1891 37.409 17.1891 36.9531C17.1891 36.4973 17.008 36.0601 16.6857 35.7378C16.3634 35.4154 15.9262 35.2344 15.4704 35.2344H13.7516C11.7225 35.2367 9.75808 34.5211 8.20602 33.2141C6.65396 31.9071 5.61443 30.093 5.27147 28.0932C4.92851 26.0933 5.30424 24.0366 6.33214 22.2871C7.36005 20.5377 8.97382 19.2084 10.8877 18.5346C11.2226 18.416 11.5125 18.1966 11.7176 17.9065C11.9227 17.6164 12.0328 17.2699 12.0329 16.9146V15.4687C12.0329 13.6454 12.7572 11.8967 14.0465 10.6074C15.3358 9.31806 17.0845 8.59374 18.9079 8.59374C20.7312 8.59374 22.4799 9.31806 23.7692 10.6074C25.0585 11.8967 25.7829 13.6454 25.7829 15.4687V30.134C23.8955 28.4365 21.4463 27.4981 18.9079 27.5C18.452 27.5 18.0149 27.6811 17.6925 28.0034C17.3702 28.3257 17.1891 28.7629 17.1891 29.2187C17.1891 29.6746 17.3702 30.1117 17.6925 30.4341C18.0149 30.7564 18.452 30.9375 18.9079 30.9375C20.7312 30.9375 22.4799 31.6618 23.7692 32.9511C25.0585 34.2404 25.7829 35.9891 25.7829 37.8125C25.7829 39.6358 25.0585 41.3845 23.7692 42.6738C22.4799 43.9632 20.7312 44.6875 18.9079 44.6875ZM41.2516 35.2344H39.5329C39.077 35.2344 38.6399 35.4154 38.3175 35.7378C37.9952 36.0601 37.8141 36.4973 37.8141 36.9531C37.8141 37.409 37.9952 37.8461 38.3175 38.1684C38.6399 38.4908 39.077 38.6719 39.5329 38.6719H41.2516C41.813 38.671 42.3737 38.6308 42.9295 38.5515C42.7868 39.8721 42.2645 41.1231 41.4259 42.1531C40.5872 43.1832 39.4682 43.9482 38.204 44.3558C36.9398 44.7634 35.5846 44.796 34.3022 44.4498C33.0199 44.1035 31.8653 43.3932 30.9781 42.4048C30.0908 41.4163 29.5089 40.1919 29.3027 38.8798C29.0965 37.5676 29.2749 36.2238 29.8161 35.0108C30.3574 33.7978 31.2385 32.7676 32.3529 32.0448C33.4672 31.3219 34.7671 30.9373 36.0954 30.9375C36.5512 30.9375 36.9884 30.7564 37.3107 30.4341C37.633 30.1117 37.8141 29.6746 37.8141 29.2187C37.8141 28.7629 37.633 28.3257 37.3107 28.0034C36.9884 27.6811 36.5512 27.5 36.0954 27.5C33.5569 27.4981 31.1077 28.4365 29.2204 30.134V15.4687C29.2204 13.6454 29.9447 11.8967 31.234 10.6074C32.5233 9.31806 34.272 8.59374 36.0954 8.59374C37.9187 8.59374 39.6674 9.31806 40.9567 10.6074C42.246 11.8967 42.9704 13.6454 42.9704 15.4687V16.9146C42.9704 17.2699 43.0806 17.6164 43.2856 17.9065C43.4907 18.1966 43.7806 18.416 44.1155 18.5346C46.0294 19.2084 47.6432 20.5377 48.6711 22.2871C49.699 24.0366 50.0747 26.0933 49.7318 28.0932C49.3888 30.093 48.3493 31.9071 46.7972 33.2141C45.2451 34.5211 43.2807 35.2367 41.2516 35.2344ZM44.6891 24.0625C44.6891 24.5183 44.508 24.9555 44.1857 25.2778C43.8634 25.6002 43.4262 25.7812 42.9704 25.7812H42.111C40.0597 25.7812 38.0924 24.9664 36.642 23.5159C35.1915 22.0654 34.3766 20.0981 34.3766 18.0469V17.1875C34.3766 16.7316 34.5577 16.2945 34.88 15.9721C35.2024 15.6498 35.6395 15.4687 36.0954 15.4687C36.5512 15.4687 36.9884 15.6498 37.3107 15.9721C37.633 16.2945 37.8141 16.7316 37.8141 17.1875V18.0469C37.8141 19.1865 38.2668 20.2794 39.0726 21.0852C39.8785 21.891 40.9714 22.3437 42.111 22.3437H42.9704C43.4262 22.3437 43.8634 22.5248 44.1857 22.8471C44.508 23.1695 44.6891 23.6066 44.6891 24.0625ZM12.8922 25.7812H12.0329C11.577 25.7812 11.1398 25.6002 10.8175 25.2778C10.4952 24.9555 10.3141 24.5183 10.3141 24.0625C10.3141 23.6066 10.4952 23.1695 10.8175 22.8471C11.1398 22.5248 11.577 22.3437 12.0329 22.3437H12.8922C14.0318 22.3437 15.1248 21.891 15.9306 21.0852C16.7364 20.2794 17.1891 19.1865 17.1891 18.0469V17.1875C17.1891 16.7316 17.3702 16.2945 17.6925 15.9721C18.0149 15.6498 18.452 15.4687 18.9079 15.4687C19.3637 15.4687 19.8009 15.6498 20.1232 15.9721C20.4455 16.2945 20.6266 16.7316 20.6266 17.1875V18.0469C20.6266 20.0981 19.8117 22.0654 18.3613 23.5159C16.9108 24.9664 14.9435 25.7812 12.8922 25.7812Z" fill="#0F52BA"/>
</svg>
