<svg width="25" height="25" viewBox="0 0 25 25" fill="none" xmlns="http://www.w3.org/2000/svg">
<path d="M0 12.5C0 5.59644 5.59644 0 12.5 0C19.4036 0 25 5.59644 25 12.5C25 19.4036 19.4036 25 12.5 25C5.59644 25 0 19.4036 0 12.5ZM11.7187 1.68211C10.6728 2.002 9.63222 2.96441 8.76991 4.58123C8.49995 5.08741 8.25468 5.64629 8.03905 6.24999H11.7187V1.68211ZM6.38991 6.24999C6.66869 5.37717 7.00508 4.56998 7.39124 3.84594C7.67049 3.32234 7.98222 2.83189 8.32384 2.38805C6.37686 3.19302 4.71295 4.54395 3.52295 6.24999H6.38991ZM5.48196 11.7187C5.52842 10.3487 5.6964 9.0339 5.96876 7.81249H2.61504C2.04582 9.01073 1.68805 10.3289 1.58997 11.7187H5.48196ZM7.57322 7.81249C7.28134 9.00777 7.09612 10.3247 7.0454 11.7187H11.7187V7.81249H7.57322ZM13.2812 7.81249V11.7187H17.9546C17.9039 10.3247 17.7186 9.00777 17.4268 7.81249H13.2812ZM7.0454 13.2812C7.09612 14.6753 7.28134 15.9922 7.57322 17.1875H11.7187V13.2812H7.0454ZM13.2812 13.2812V17.1875H17.4268C17.7186 15.9922 17.9039 14.6753 17.9546 13.2812H13.2812ZM8.03905 18.75C8.25468 19.3537 8.49995 19.9126 8.76991 20.4187C9.63222 22.0356 10.6728 22.998 11.7187 23.3179V18.75H8.03905ZM8.32385 22.6119C7.98223 22.1681 7.67049 21.6776 7.39124 21.154C7.00508 20.43 6.66869 19.6228 6.38991 18.75H3.52295C4.71295 20.456 6.37686 21.807 8.32385 22.6119ZM5.96876 17.1875C5.6964 15.9661 5.52842 14.6513 5.48196 13.2812H1.58997C1.68805 14.6711 2.04582 15.9893 2.61504 17.1875H5.96876ZM16.6761 22.6119C18.6231 21.807 20.287 20.456 21.477 18.75H18.6101C18.3313 19.6228 17.9949 20.43 17.6087 21.154C17.3295 21.6776 17.0178 22.1681 16.6761 22.6119ZM13.2812 18.75V23.3179C14.3272 22.998 15.3678 22.0356 16.2301 20.4187C16.5 19.9126 16.7453 19.3537 16.9609 18.75H13.2812ZM19.0312 17.1875H22.3849C22.9542 15.9893 23.3119 14.6711 23.41 13.2812H19.518C19.4716 14.6513 19.3036 15.9661 19.0312 17.1875ZM23.41 11.7187C23.3119 10.3289 22.9542 9.01073 22.3849 7.81249H19.0312C19.3036 9.0339 19.4716 10.3487 19.518 11.7187H23.41ZM17.6087 3.84594C17.9949 4.56998 18.3313 5.37717 18.6101 6.24999H21.477C20.287 4.54395 18.6231 3.19302 16.6761 2.38805C17.0178 2.83189 17.3295 3.32235 17.6087 3.84594ZM16.9609 6.24999C16.7453 5.64629 16.5 5.08741 16.2301 4.58123C15.3678 2.96441 14.3272 2.002 13.2812 1.68211V6.24999H16.9609Z" fill="black"/>
</svg>
