<svg width="25" height="26" viewBox="0 0 25 26" fill="none" xmlns="http://www.w3.org/2000/svg">
<path d="M19.009 14.4684C18.1902 16.1273 17.082 17.7814 15.9465 19.2657C14.8146 20.7453 13.6788 22.0263 12.8245 22.9382C12.711 23.0594 12.6026 23.1739 12.5 23.2814C12.3974 23.1739 12.289 23.0594 12.1755 22.9382C11.3212 22.0263 10.1854 20.7453 9.05351 19.2657C7.91803 17.7814 6.80976 16.1273 5.99098 14.4684C5.16376 12.7923 4.6875 11.2217 4.6875 9.875C4.6875 5.56028 8.18528 2.0625 12.5 2.0625C16.8147 2.0625 20.3125 5.56028 20.3125 9.875C20.3125 11.2217 19.8362 12.7923 19.009 14.4684ZM12.5 25.5C12.5 25.5 21.875 16.6152 21.875 9.875C21.875 4.69733 17.6777 0.5 12.5 0.5C7.32233 0.5 3.125 4.69733 3.125 9.875C3.125 16.6152 12.5 25.5 12.5 25.5Z" fill="black"/>
<path d="M12.5 13C10.7741 13 9.375 11.6009 9.375 9.875C9.375 8.14911 10.7741 6.75 12.5 6.75C14.2259 6.75 15.625 8.14911 15.625 9.875C15.625 11.6009 14.2259 13 12.5 13ZM12.5 14.5625C15.0888 14.5625 17.1875 12.4638 17.1875 9.875C17.1875 7.28617 15.0888 5.1875 12.5 5.1875C9.91117 5.1875 7.8125 7.28617 7.8125 9.875C7.8125 12.4638 9.91117 14.5625 12.5 14.5625Z" fill="black"/>
</svg>
