<svg width="15" height="17" viewBox="0 0 15 17" fill="none" xmlns="http://www.w3.org/2000/svg">
<path d="M3.42551 1.41152C3.19072 1.0694 2.74448 1.03791 2.47407 1.34439L1.50476 2.44293C1.0515 2.95663 0.884878 3.68438 1.08291 4.32275C1.87817 6.88631 3.18014 9.29338 4.99005 11.3446C6.79996 13.3958 8.92384 14.8714 11.1858 15.7727C11.7491 15.9971 12.3912 15.8083 12.8445 15.2946L13.8138 14.1961C14.0842 13.8896 14.0564 13.3839 13.7545 13.1178L11.5925 11.212C11.4383 11.076 11.2375 11.028 11.0479 11.0817L8.9957 11.6632C8.43826 11.8211 7.84859 11.636 7.4423 11.1755L5.13925 8.5654C4.73296 8.10493 4.56963 7.43663 4.70899 6.80488L5.22205 4.479C5.26943 4.26419 5.22705 4.03662 5.1071 3.86185L3.42551 1.41152ZM1.76697 0.543018C2.46271 -0.245479 3.61078 -0.164472 4.21484 0.715737L5.89644 3.16607C6.20503 3.61573 6.31408 4.20122 6.19217 4.75387L5.67911 7.07975C5.62494 7.3253 5.68843 7.58505 5.84635 7.76403L8.14939 10.3741C8.30731 10.5531 8.5365 10.6251 8.75316 10.5637L10.8054 9.98221C11.293 9.84405 11.8097 9.96763 12.2064 10.3174L14.3685 12.2232C15.1451 12.9078 15.2166 14.2089 14.5209 14.9974L13.5516 16.096C12.8581 16.8819 11.8208 17.227 10.8541 16.8419C8.45395 15.8855 6.20098 14.3197 4.28296 12.146C2.36493 9.97222 0.98339 7.41886 0.139536 4.69864C-0.200327 3.60307 0.104184 2.42751 0.797672 1.64156L1.76697 0.543018Z" fill="black"/>
</svg>
