<svg width="25" height="25" viewBox="0 0 25 25" fill="none" xmlns="http://www.w3.org/2000/svg">
<path d="M14.0889 4.48515C14.1154 4.38601 14.1612 4.29305 14.2236 4.21161C14.2861 4.13017 14.364 4.06183 14.4529 4.0105C14.5417 3.95917 14.6399 3.92585 14.7416 3.91245C14.8434 3.89906 14.9468 3.90584 15.0459 3.93242C16.4942 4.3103 17.8156 5.06742 18.874 6.12581C19.9324 7.1842 20.6895 8.5056 21.0674 9.9539C21.094 10.053 21.1008 10.1564 21.0874 10.2582C21.074 10.3599 21.0406 10.4581 20.9893 10.5469C20.938 10.6358 20.8696 10.7137 20.7882 10.7762C20.7068 10.8386 20.6138 10.8844 20.5147 10.9109C20.4487 10.9283 20.3807 10.9371 20.3125 10.9373C20.1404 10.9373 19.973 10.8804 19.8365 10.7755C19.7 10.6706 19.602 10.5236 19.5576 10.3572C19.2494 9.17492 18.6315 8.0962 17.7676 7.23225C16.9036 6.3683 15.8249 5.75038 14.6426 5.44219C14.5434 5.41577 14.4503 5.37005 14.3687 5.30764C14.2872 5.24523 14.2187 5.16735 14.1673 5.07847C14.1159 4.98958 14.0825 4.89143 14.069 4.78962C14.0556 4.68781 14.0623 4.58435 14.0889 4.48515ZM13.8613 8.56719C15.208 8.92656 16.0733 9.79179 16.4326 11.1385C16.477 11.3048 16.575 11.4519 16.7115 11.5568C16.848 11.6617 17.0154 11.7185 17.1875 11.7186C17.2557 11.7184 17.3237 11.7095 17.3897 11.6922C17.4888 11.6657 17.5818 11.6199 17.6632 11.5574C17.7446 11.495 17.813 11.4171 17.8643 11.3282C17.9156 11.2393 17.949 11.1412 17.9624 11.0394C17.9758 10.9377 17.969 10.8343 17.9424 10.7352C17.4424 8.86406 16.1358 7.55742 14.2647 7.05742C14.0645 7.00394 13.8512 7.03218 13.6718 7.13592C13.4924 7.23967 13.3616 7.41043 13.3081 7.61064C13.2546 7.81085 13.2829 8.0241 13.3866 8.20349C13.4904 8.38288 13.6611 8.5137 13.8613 8.56719ZM21.8633 17.8787C21.6892 19.202 21.0393 20.4166 20.0351 21.2958C19.0308 22.1749 17.7409 22.6584 16.4063 22.6561C8.65235 22.6561 2.34376 16.3475 2.34376 8.59355C2.34137 7.25888 2.8249 5.96897 3.70405 4.96474C4.58319 3.96051 5.79783 3.31065 7.1211 3.13652C7.45572 3.09566 7.79459 3.16412 8.08711 3.33168C8.37962 3.49923 8.61011 3.7569 8.74415 4.06621L10.8067 8.6707V8.68242C10.9093 8.91919 10.9517 9.17769 10.93 9.43484C10.9084 9.69198 10.8234 9.93976 10.6826 10.1561C10.665 10.1824 10.6465 10.2068 10.627 10.2312L8.59376 12.6414C9.3252 14.1277 10.8799 15.6687 12.3858 16.4021L14.7627 14.3797C14.786 14.3601 14.8105 14.3418 14.8359 14.325C15.0521 14.1809 15.3007 14.0929 15.5594 14.069C15.818 14.0451 16.0786 14.0861 16.3174 14.1883L16.3301 14.1941L20.9307 16.2557C21.2405 16.3892 21.4988 16.6195 21.6669 16.9121C21.835 17.2046 21.9039 17.5437 21.8633 17.8787ZM20.3125 17.6834C20.3125 17.6834 20.3057 17.6834 20.3018 17.6834L15.7119 15.6277L13.334 17.6502C13.3109 17.6697 13.2868 17.688 13.2617 17.7049C13.0369 17.8549 12.777 17.944 12.5074 17.9635C12.2378 17.983 11.9677 17.9323 11.7236 17.8162C9.89454 16.9324 8.0713 15.1228 7.18653 13.3133C7.06937 13.071 7.0168 12.8025 7.03391 12.5338C7.05102 12.2652 7.13723 12.0056 7.28419 11.7801C7.30075 11.7536 7.31937 11.7285 7.33985 11.7049L9.37501 9.29179L7.32423 4.70195C7.32384 4.69805 7.32384 4.69413 7.32423 4.69023C6.37721 4.81377 5.5077 5.27828 4.87854 5.99679C4.24937 6.7153 3.9037 7.63852 3.90626 8.59355C3.90988 11.9076 5.228 15.085 7.57142 17.4284C9.91484 19.7718 13.0922 21.0899 16.4063 21.0936C17.3607 21.0968 18.2837 20.7524 19.0026 20.1246C19.7215 19.4968 20.1872 18.6286 20.3125 17.6824V17.6834Z" fill="white"/>
</svg>
