<svg width="16" height="16" viewBox="0 0 16 16" fill="none" xmlns="http://www.w3.org/2000/svg">
<path d="M11.5083 10.1974C12.2496 9.1881 12.6875 7.94206 12.6875 6.59375C12.6875 3.22826 9.95924 0.5 6.59375 0.5C3.22826 0.5 0.5 3.22826 0.5 6.59375C0.5 9.95924 3.22826 12.6875 6.59375 12.6875C7.94242 12.6875 9.18876 12.2494 10.1982 11.5077L10.1974 11.5083C10.225 11.5458 10.2558 11.5817 10.2898 11.6156L13.8996 15.2254C14.2657 15.5915 14.8593 15.5915 15.2254 15.2254C15.5915 14.8593 15.5915 14.2657 15.2254 13.8996L11.6156 10.2898C11.5817 10.2558 11.5458 10.225 11.5083 10.1974ZM11.75 6.59375C11.75 9.44147 9.44147 11.75 6.59375 11.75C3.74603 11.75 1.4375 9.44147 1.4375 6.59375C1.4375 3.74603 3.74603 1.4375 6.59375 1.4375C9.44147 1.4375 11.75 3.74603 11.75 6.59375Z" fill="white"/>
</svg>
