<svg width="25" height="25" viewBox="0 0 25 25" fill="none" xmlns="http://www.w3.org/2000/svg">
<g clip-path="url(#clip0_2001_1203)">
<path d="M12.5 25C19.4035 25 25 19.4035 25 12.5C25 5.59646 19.4035 0 12.5 0C5.59646 0 0 5.59646 0 12.5C0 19.4035 5.59646 25 12.5 25Z" fill="#0F52BA"/>
<path d="M4.65714 13.1115C6.11838 12.3066 7.74952 11.6348 9.27358 10.9596C11.8956 9.85367 14.528 8.7669 17.1869 7.75513C17.7043 7.58273 18.6338 7.41414 18.7249 8.18081C18.675 9.26601 18.4697 10.3449 18.3289 11.4237C17.9714 13.7962 17.5583 16.1606 17.1555 18.5253C17.0167 19.3129 16.0299 19.7207 15.3986 19.2166C13.8813 18.1917 12.3523 17.1768 10.8544 16.1282C10.3637 15.6296 10.8187 14.9136 11.257 14.5576C12.5067 13.326 13.832 12.2797 15.0163 10.9845C15.3358 10.2129 14.3919 10.8631 14.0805 11.0624C12.3697 12.2413 10.7007 13.4923 8.89697 14.5284C7.97562 15.0356 6.90176 14.6022 5.98082 14.3191C5.15509 13.9773 3.94516 13.6328 4.65714 13.1115Z" fill="white"/>
</g>
<defs>
<clipPath id="clip0_2001_1203">
<rect width="25" height="25" fill="white"/>
</clipPath>
</defs>
</svg>
