<svg width="25" height="25" viewBox="0 0 25 25" fill="none" xmlns="http://www.w3.org/2000/svg">
<path d="M22.3522 2.55744C22.2311 2.45291 22.0839 2.3834 21.9262 2.35638C21.7686 2.32937 21.6066 2.34587 21.4577 2.40412L1.66664 10.1492C1.38616 10.2583 1.1487 10.4555 0.990008 10.7112C0.831317 10.9669 0.759987 11.2673 0.786756 11.567C0.813525 11.8668 0.936945 12.1497 1.13843 12.3733C1.33992 12.5968 1.60858 12.7488 1.90395 12.8065L7.03188 13.8133V19.5311C7.03087 19.8425 7.12342 20.1471 7.29754 20.4053C7.47167 20.6635 7.71933 20.8635 8.00844 20.9793C8.2971 21.0972 8.61456 21.1255 8.91952 21.0605C9.22448 20.9956 9.50284 20.8403 9.7184 20.6151L12.1911 18.0506L16.1139 21.4842C16.3969 21.7352 16.762 21.8742 17.1403 21.8748C17.3061 21.8747 17.4708 21.8487 17.6286 21.7977C17.8863 21.7159 18.1182 21.568 18.301 21.3687C18.4838 21.1695 18.6112 20.9258 18.6705 20.6619L22.6344 3.41779C22.6699 3.26227 22.6623 3.10004 22.6126 2.94847C22.5629 2.79691 22.4729 2.66174 22.3522 2.55744ZM16.3815 6.07306L7.63246 12.3387L2.78871 11.3885L16.3815 6.07306ZM8.59438 19.5311V14.8944L11.0153 17.0174L8.59438 19.5311ZM17.1422 20.3123L9.06801 13.2322L20.6891 4.90314L17.1422 20.3123Z" fill="white"/>
</svg>
