<svg width="25" height="25" viewBox="0 0 25 25" fill="none" xmlns="http://www.w3.org/2000/svg">
<g clip-path="url(#clip0_2001_1206)">
<path opacity="0.2" d="M6.91797 20.1704H13.4284L6.91797 26.3849V20.1704Z" fill="black"/>
<path d="M6.91797 19.2827H13.4284L6.91797 25.4972V19.2827Z" fill="#0F52BA"/>
<path opacity="0.2" d="M15.7685 1.52698H9.23263C4.87356 1.52698 1.33984 5.05761 1.33984 9.41287V14.0601C1.33984 18.4154 4.87356 21.946 9.23263 21.946H15.7685C20.1276 21.946 23.6613 18.4154 23.6613 14.0601V9.41287C23.6613 5.05761 20.1276 1.52698 15.7685 1.52698Z" fill="black"/>
<path d="M15.7685 0.63916H9.23263C4.87356 0.63916 1.33984 4.16979 1.33984 8.52505V13.1723C1.33984 17.5276 4.87356 21.0582 9.23263 21.0582H15.7685C20.1276 21.0582 23.6613 17.5276 23.6613 13.1723V8.52505C23.6613 4.16979 20.1276 0.63916 15.7685 0.63916Z" fill="#0F52BA"/>
<path opacity="0.1" d="M9.23263 0.63916C4.86003 0.63916 1.33984 4.1564 1.33984 8.52518V9.41296C1.33984 5.04418 4.86003 1.52694 9.23263 1.52694H15.7685C20.1411 1.52694 23.6613 5.04418 23.6613 9.41296V8.52518C23.6613 4.1564 20.1411 0.63916 15.7685 0.63916H9.23263Z" fill="white"/>
<path opacity="0.2" d="M14.0068 4.19104L14.0086 4.19277C13.6942 4.19277 13.4322 4.43282 13.4292 4.72336C13.4273 5.01523 13.6883 5.25938 14.005 5.26089C15.3718 5.27068 16.4957 5.68401 17.4019 6.4972C18.2974 7.30284 18.7651 8.41834 18.777 9.87494V9.87671C18.7803 10.1665 19.0412 10.4056 19.3565 10.4056C19.3565 10.4056 19.3616 10.4039 19.362 10.4038C19.678 10.401 19.9404 10.1579 19.9378 9.86627C19.9306 9.01615 19.7864 8.23484 19.5036 7.54797C19.2172 6.85385 18.7813 6.23993 18.2139 5.72906C17.0924 4.72259 15.6608 4.20215 14.0122 4.19104H14.0068ZM7.57629 5.97875C7.35613 5.94345 7.1186 5.98395 6.88057 6.09319H6.86058L6.83515 6.10706C6.39296 6.34701 5.97739 6.66772 5.58902 7.07114L5.55814 7.10408V7.13182C5.28949 7.4515 5.11214 7.77358 5.07131 8.0959C5.05827 8.15053 5.05859 8.20099 5.05859 8.25369C5.05859 8.40034 5.08206 8.54796 5.12944 8.69412L5.14215 8.73573L5.16759 8.75133C5.32098 9.25353 5.67027 10.0339 6.43189 11.3575C6.93917 12.2347 7.45748 12.9682 7.9723 13.5856C8.24348 13.9101 8.54948 14.2475 8.90599 14.5878C8.91018 14.5919 8.92597 14.6067 8.94232 14.6208C8.94799 14.6262 8.95554 14.6368 8.97502 14.6554L9.01135 14.6901H9.01321C9.02575 14.7021 9.03494 14.7103 9.03682 14.7127L9.04231 14.7196L9.04956 14.7265C9.4061 15.063 9.75758 15.3572 10.1013 15.6143C10.7473 16.1056 11.5146 16.6049 12.4337 17.0899C13.8223 17.8209 14.6496 18.1511 15.1731 18.295L15.1912 18.3175L15.2239 18.3279C15.3722 18.3751 15.5253 18.396 15.6781 18.3938C15.74 18.397 15.7947 18.393 15.847 18.3817C16.2055 18.3417 16.5621 18.1808 16.9133 17.8996L16.9169 17.8944L16.9205 17.8926C16.926 17.8875 16.9231 17.8892 16.926 17.8857C16.9292 17.883 16.93 17.8798 16.9333 17.877C17.349 17.515 17.6836 17.1213 17.936 16.6997L17.9524 16.6736V16.6476C18.1842 16.1869 18.0928 15.7164 17.7162 15.4165C17.707 15.409 17.5265 15.2652 17.302 15.0905C17.0725 14.912 16.7992 14.7025 16.6154 14.5738C16.2676 14.3283 15.7302 14.01 15.4238 13.8473C14.8352 13.5327 14.2194 13.7157 13.9487 14.0502L13.4746 14.6172C13.2833 14.8472 12.8999 14.8258 12.8897 14.8252C9.67157 14.0352 8.8069 10.9458 8.80072 10.9239C8.80014 10.9142 8.77748 10.5494 9.0187 10.3638L9.60907 9.91296C9.9604 9.65619 10.1584 9.06819 9.82705 8.50499C9.65412 8.21394 9.31939 7.69695 9.06584 7.36764C8.92883 7.19153 8.70986 6.93156 8.5227 6.71221C8.42957 6.60257 8.34289 6.50118 8.28111 6.42957C8.24976 6.39377 8.22635 6.36486 8.20844 6.34461C8.19951 6.33449 8.19187 6.32789 8.18664 6.32207C8.18404 6.31915 8.18171 6.31757 8.17939 6.31514C8.01591 6.12982 7.80758 6.01637 7.57811 5.97875H7.57629ZM14.0413 6.67926C13.7311 6.65839 13.4536 6.87912 13.4309 7.16477C13.4083 7.45073 13.6497 7.70573 13.9596 7.72657C14.7257 7.77826 15.2422 7.99324 15.6308 8.38547V8.38725C16.0273 8.78676 16.209 9.24283 16.1939 9.86631V9.86977C16.1872 10.1567 16.4383 10.3993 16.7497 10.4056H16.7643C17.0712 10.4056 17.326 10.1739 17.3328 9.89058C17.3538 9.03354 17.0629 8.26921 16.4736 7.67632C15.8802 7.08049 15.041 6.7471 14.0413 6.67926Z" fill="black"/>
<path d="M14.0068 3.30261L14.0086 3.30435C13.6941 3.30435 13.4321 3.54439 13.4291 3.83494C13.4273 4.1268 13.6883 4.37096 14.005 4.37246C15.3718 4.38226 16.4957 4.79559 17.4019 5.60877C18.2974 6.41441 18.7651 7.52991 18.777 8.98651V8.98825C18.7802 9.27804 19.0411 9.5171 19.3564 9.5171C19.3565 9.5171 19.3615 9.51546 19.3619 9.51537C19.6779 9.51261 19.9403 9.26945 19.9377 8.97784C19.9306 8.12773 19.7864 7.34641 19.5036 6.65955C19.2172 5.96542 18.7813 5.35151 18.2139 4.84063C17.0924 3.83417 15.6608 3.31372 14.0122 3.30261H14.0068ZM7.57629 5.09032C7.35613 5.05502 7.1186 5.09552 6.88057 5.20476H6.86058L6.83515 5.21863C6.39296 5.45858 5.97739 5.77929 5.58902 6.18271L5.55814 6.21565V6.2434C5.28949 6.56307 5.11214 6.88515 5.07131 7.20747C5.05827 7.2621 5.05859 7.31256 5.05859 7.36526C5.05859 7.51191 5.08206 7.65953 5.12944 7.80569L5.14215 7.8473L5.16759 7.86291C5.32098 8.36511 5.67027 9.14549 6.43189 10.469C6.93917 11.3463 7.45748 12.0798 7.9723 12.6972C8.24348 13.0216 8.54947 13.3591 8.90599 13.6994C8.91017 13.7035 8.92597 13.7183 8.94232 13.7323C8.94799 13.7378 8.95554 13.7484 8.97502 13.767L9.01135 13.8017H9.01316C9.02571 13.8137 9.0349 13.8218 9.03678 13.8242L9.04223 13.8312L9.04949 13.8381C9.40603 14.1746 9.75751 14.4688 10.1013 14.7259C10.7472 15.2172 11.5145 15.7165 12.4337 16.2015C13.8222 16.9325 14.6496 17.2627 15.173 17.4066L15.1912 17.4291L15.2239 17.4395C15.3721 17.4867 15.5252 17.5076 15.678 17.5054C15.74 17.5086 15.7946 17.5046 15.8469 17.4933C16.2054 17.4533 16.5621 17.2924 16.9132 17.0112L16.9169 17.006L16.9205 17.0043C16.926 16.9992 16.9231 17.0008 16.9259 16.9974C16.9291 16.9947 16.9299 16.9915 16.9332 16.9887C17.3489 16.6267 17.6835 16.233 17.9359 15.8114L17.9523 15.7853V15.7593C18.1841 15.2986 18.0927 14.8281 17.7161 14.5282C17.7069 14.5207 17.5265 14.3769 17.302 14.2022C17.0724 14.0237 16.7991 13.8142 16.6153 13.6855C16.2675 13.44 15.7301 13.1217 15.4237 12.959C14.8351 12.6445 14.2193 12.8274 13.9487 13.1619L13.4745 13.7289C13.2832 13.9589 12.8998 13.9375 12.8896 13.9369C9.67149 13.1469 8.80681 10.0575 8.80063 10.0356C8.80006 10.0259 8.77739 9.6611 9.01861 9.47549L9.60898 9.02466C9.96031 8.76789 10.1583 8.17989 9.82697 7.61669C9.65412 7.32551 9.31939 6.80852 9.06584 6.47921C8.92883 6.3031 8.70986 6.04313 8.5227 5.82378C8.42957 5.71415 8.34289 5.61275 8.28111 5.54115C8.24976 5.50534 8.22635 5.47643 8.20844 5.45618C8.19952 5.44606 8.19187 5.43946 8.18665 5.43364C8.18404 5.43072 8.18171 5.42914 8.17938 5.42671C8.01591 5.24139 7.80758 5.12794 7.57811 5.09032H7.57629ZM14.0413 5.79084C13.7311 5.76996 13.4536 5.99069 13.4309 6.27634C13.4083 6.56231 13.6497 6.8173 13.9596 6.83814C14.7257 6.88983 15.2422 7.10481 15.6308 7.49705V7.49878C16.0273 7.89829 16.209 8.35437 16.1939 8.97784V8.98131C16.1872 9.26822 16.4383 9.51081 16.7497 9.5171H16.7643C17.0711 9.5171 17.326 9.28541 17.3328 9.00212C17.3538 8.14507 17.0628 7.38075 16.4736 6.78786C15.8802 6.19206 15.041 5.85867 14.0413 5.79084Z" fill="white"/>
</g>
<defs>
<clipPath id="clip0_2001_1206">
<rect width="25" height="25" fill="white"/>
</clipPath>
</defs>
</svg>
