<svg width="34" height="34" viewBox="0 0 34 34" fill="none" xmlns="http://www.w3.org/2000/svg">
<g clip-path="url(#clip0_2024_1415)">
<path d="M12.75 15.5833H9.91667V18.4167H12.75V15.5833ZM18.4167 15.5833H15.5833V18.4167H18.4167V15.5833ZM24.0833 15.5833H21.25V18.4167H24.0833V15.5833ZM26.9167 5.66668H25.5V2.83334H22.6667V5.66668H11.3333V2.83334H8.5V5.66668H7.08333C5.51083 5.66668 4.26417 6.94168 4.26417 8.50001L4.25 28.3333C4.25 29.8917 5.51083 31.1667 7.08333 31.1667H26.9167C28.475 31.1667 29.75 29.8917 29.75 28.3333V8.50001C29.75 6.94168 28.475 5.66668 26.9167 5.66668ZM26.9167 28.3333H7.08333V12.75H26.9167V28.3333Z" fill="#D97706"/>
</g>
<defs>
<clipPath id="clip0_2024_1415">
<rect width="34" height="34" fill="white"/>
</clipPath>
</defs>
</svg>
